<?xml version="1.0" encoding="UTF-8"?><title>Journal</title>
<!-- Generator: visioncortex VTracer 0.6.4 -->
<svg role="img" aria-label="Journal" viewBox="0 0 32 32" version="1.1" xmlns="http://www.w3.org/2000/svg">
<path d="M0,0 L28,0 L28,20 L17,20 L17,22 L11,22 L11,20 L0,20 Z " fill="#C89328" transform="translate(2,5)"/>
<path d="M0,0 L11,0 L11,16 L0,16 Z " fill="#F4C701" transform="translate(17,7)"/>
<path d="M0,0 L11,0 L11,16 L0,16 Z " fill="#F4C701" transform="translate(4,7)"/>
<path d="M0,0 L11,0 L11,18 L9,18 L9,2 L0,2 Z " fill="#C38711" transform="translate(19,5)"/>
<path d="M0,0 L2,0 L2,16 L11,16 L11,18 L0,18 Z " fill="#C48915" transform="translate(2,7)"/>
</svg>
